<svg version="1.1" id="Layer_1" xmlns="http://www.w3.org/2000/svg" xmlns:xlink="http://www.w3.org/1999/xlink" x="0px" y="0px"
	 width="100%" viewBox="0 0 2953 2953" enable-background="new 0 0 2953 2953" xml:space="preserve">
<path fill="#FEFFFE" opacity="1.000000" stroke="none" 
	d="
M1728.000000,2956.000000 
	C1152.000122,2956.000000 577.000183,2956.000000 2.000231,2956.000000 
	C2.000154,1971.333618 2.000154,986.667236 2.000077,2.000628 
	C986.666199,2.000419 1971.332397,2.000419 2955.999023,2.000209 
	C2955.999268,986.666016 2955.999268,1971.332031 2955.999512,2955.999023 
	C2547.000000,2956.000000 2138.000000,2956.000000 1728.000000,2956.000000 
M1878.866333,2599.889648 
	C1880.118896,2599.405273 1881.362549,2598.896484 1882.625122,2598.439941 
	C2069.489746,2530.873291 2230.328369,2424.030518 2362.911621,2276.090576 
	C2556.195068,2060.420166 2657.481689,1806.845337 2669.474121,1517.722290 
	C2673.397949,1423.119995 2664.724854,1329.298706 2645.467285,1236.605103 
	C2612.245117,1076.694458 2548.401123,929.902161 2454.909424,796.010132 
	C2405.682617,725.510803 2349.321777,661.242126 2285.849854,603.223694 
	C2281.237793,599.007935 2276.821533,594.429443 2269.676758,593.086243 
	C2268.267090,595.769592 2266.834473,598.309082 2265.570068,600.929749 
	C2204.210938,728.104065 2109.442383,820.884338 1980.257935,878.317810 
	C1905.761230,911.437866 1827.405151,930.422729 1747.038574,941.801941 
	C1684.956665,950.592224 1622.466919,954.775696 1559.800903,955.993103 
	C1522.497803,956.717773 1485.177490,957.071106 1447.869019,956.869934 
	C1404.221558,956.634644 1360.578979,955.569519 1316.932617,954.991150 
	C1311.394409,954.917725 1305.845825,955.609985 1300.432739,955.939636 
	C1276.524048,1051.140259 1251.487915,1144.993774 1229.206665,1239.734741 
	C1234.282471,1237.477295 1238.443359,1234.793945 1242.553711,1232.035278 
	C1261.624634,1219.235718 1280.143433,1205.514404 1299.835449,1193.756592 
	C1391.549072,1138.995605 1490.293945,1112.705078 1597.557617,1121.739380 
	C1656.558838,1126.708618 1712.923096,1141.454468 1766.147583,1167.376831 
	C1932.135864,1248.220093 2046.206421,1414.562012 2054.001465,1616.332031 
	C2056.519531,1681.514160 2047.276978,1745.280518 2030.629272,1808.031128 
	C1993.018066,1949.800415 1917.211182,2067.124268 1802.490967,2158.557373 
	C1695.514893,2243.818359 1573.394775,2291.189941 1436.664795,2299.466553 
	C1383.264771,2302.698975 1330.063599,2299.460449 1277.605957,2288.272705 
	C1118.668945,2254.376953 994.965210,2170.034668 910.083923,2030.541504 
	C881.025208,1982.786865 860.444946,1931.162231 842.094788,1878.580200 
	C841.805603,1877.751587 842.200195,1876.684448 842.327026,1875.078003 
	C931.432800,1852.288818 1020.573547,1829.490601 1109.859497,1806.655273 
	C1111.306152,1809.399048 1112.317993,1811.070923 1113.103271,1812.843018 
	C1134.217529,1860.495239 1164.494385,1901.657593 1203.337402,1936.106079 
	C1257.766235,1984.376465 1321.669312,2009.836914 1394.710205,2009.452515 
	C1440.957520,2009.209106 1484.947266,1997.717896 1526.420776,1977.056396 
	C1646.451538,1917.258423 1723.854004,1788.870361 1726.443970,1654.342773 
	C1727.426392,1603.313477 1715.185181,1555.285767 1688.763306,1511.324341 
	C1625.639648,1406.297607 1501.048340,1356.790039 1380.500854,1381.015625 
	C1316.299194,1393.917725 1262.022095,1425.792847 1215.378296,1471.113525 
	C1187.242920,1498.450439 1164.178345,1529.806763 1144.081055,1563.408447 
	C1141.054688,1568.468384 1137.890991,1573.446289 1134.114136,1579.557251 
	C1052.935913,1545.055908 972.572571,1510.900879 891.964111,1476.641724 
	C892.283325,1474.378540 892.395691,1472.404175 892.852966,1470.513062 
	C903.489197,1426.522949 913.971008,1382.494385 924.865051,1338.568115 
	C959.151245,1200.321777 993.512817,1062.093994 1028.020996,923.902893 
	C1040.602905,873.517273 1054.129761,823.405884 1074.006592,775.250610 
	C1104.052490,702.458984 1144.365479,636.306824 1199.762329,579.855042 
	C1257.878418,520.631958 1326.750000,478.050659 1403.745483,448.007202 
	C1475.821167,419.883423 1550.800049,403.836609 1627.302979,394.171753 
	C1683.215332,387.108185 1739.437134,383.884552 1795.712524,382.005951 
	C1837.002319,380.627655 1878.335083,380.529785 1919.648926,379.874664 
	C1923.091064,379.820068 1926.534912,379.867432 1929.977905,379.867432 
	C1930.082886,379.125275 1930.187866,378.383087 1930.292847,377.640930 
	C1926.183838,375.768921 1922.105103,373.826508 1917.960938,372.035675 
	C1874.787598,353.379578 1829.779175,340.188171 1784.524536,327.886322 
	C1689.866211,302.154785 1593.213135,290.443390 1495.323242,288.035614 
	C1452.957764,286.993561 1410.756470,290.165100 1368.574951,293.634552 
	C1315.717896,297.982086 1263.457397,306.347870 1211.902832,318.543945 
	C985.487488,372.106232 789.513916,480.652222 627.721619,648.061951 
	C413.138763,870.095093 301.922150,1136.821533 290.102661,1445.109009 
	C287.710968,1507.491821 292.050537,1569.650024 299.590179,1631.579468 
	C308.672607,1706.181396 325.362274,1779.110596 349.148468,1850.351318 
	C422.674683,2070.565186 548.425903,2255.337646 728.886230,2401.455322 
	C945.446533,2576.802979 1194.200439,2664.934326 1472.732422,2668.427246 
	C1545.144775,2669.335449 1617.124756,2663.031250 1688.498291,2650.248047 
	C1752.823486,2638.726807 1815.802612,2622.253174 1878.866333,2599.889648 
M1393.472534,596.449158 
	C1348.156128,621.450562 1307.581055,652.312683 1274.095825,692.131531 
	C1240.664795,731.885864 1213.959839,775.488586 1195.505981,824.989502 
	C1198.402954,825.200623 1200.002930,825.421814 1201.602417,825.418579 
	C1247.562256,825.324890 1293.522461,825.020386 1339.481689,825.145203 
	C1393.783569,825.292725 1448.084229,826.103027 1502.385498,826.092834 
	C1578.385864,826.078613 1654.190552,822.556702 1729.590698,812.257690 
	C1781.148315,805.215271 1831.881104,794.651306 1881.166870,777.781372 
	C1937.064087,758.648376 1989.055542,732.189697 2034.551025,694.035583 
	C2093.595703,644.518677 2134.267334,581.997681 2163.017334,511.157013 
	C2163.610840,509.694641 2163.721680,508.036316 2164.149658,506.039246 
	C2160.366699,506.039246 2157.068848,505.913971 2153.783203,506.059143 
	C2128.829102,507.161743 2103.887207,508.940735 2078.923096,509.334656 
	C2014.307739,510.354218 1949.681274,510.640564 1885.062378,511.466064 
	C1826.777710,512.210693 1768.505005,513.201599 1710.333252,517.606567 
	C1656.476074,521.684814 1603.053223,528.613281 1550.303345,540.278503 
	C1496.154907,552.253052 1443.691772,569.053955 1393.472534,596.449158 
z"/>
<path fill="#EB2316" opacity="1.000000" stroke="none" 
	d="
M1878.105957,2600.086670 
	C1815.802612,2622.253174 1752.823486,2638.726807 1688.498291,2650.248047 
	C1617.124756,2663.031250 1545.144775,2669.335449 1472.732422,2668.427246 
	C1194.200439,2664.934326 945.446533,2576.802979 728.886230,2401.455322 
	C548.425903,2255.337646 422.674683,2070.565186 349.148468,1850.351318 
	C325.362274,1779.110596 308.672607,1706.181396 299.590179,1631.579468 
	C292.050537,1569.650024 287.710968,1507.491821 290.102661,1445.109009 
	C301.922150,1136.821533 413.138763,870.095093 627.721619,648.061951 
	C789.513916,480.652222 985.487488,372.106232 1211.902832,318.543945 
	C1263.457397,306.347870 1315.717896,297.982086 1368.574951,293.634552 
	C1410.756470,290.165100 1452.957764,286.993561 1495.323242,288.035614 
	C1593.213135,290.443390 1689.866211,302.154785 1784.524536,327.886322 
	C1829.779175,340.188171 1874.787598,353.379578 1917.960938,372.035675 
	C1922.105103,373.826508 1926.183838,375.768921 1930.292847,377.640930 
	C1930.187866,378.383087 1930.082886,379.125275 1929.977905,379.867432 
	C1926.534912,379.867432 1923.091064,379.820068 1919.648926,379.874664 
	C1878.335083,380.529785 1837.002319,380.627655 1795.712524,382.005951 
	C1739.437134,383.884552 1683.215332,387.108185 1627.302979,394.171753 
	C1550.800049,403.836609 1475.821167,419.883423 1403.745483,448.007202 
	C1326.750000,478.050659 1257.878418,520.631958 1199.762329,579.855042 
	C1144.365479,636.306824 1104.052490,702.458984 1074.006592,775.250610 
	C1054.129761,823.405884 1040.602905,873.517273 1028.020996,923.902893 
	C993.512817,1062.093994 959.151245,1200.321777 924.865051,1338.568115 
	C913.971008,1382.494385 903.489197,1426.522949 892.852966,1470.513062 
	C892.395691,1472.404175 892.283325,1474.378540 891.964111,1476.641724 
	C972.572571,1510.900879 1052.935913,1545.055908 1134.114136,1579.557251 
	C1137.890991,1573.446289 1141.054688,1568.468384 1144.081055,1563.408447 
	C1164.178345,1529.806763 1187.242920,1498.450439 1215.378296,1471.113525 
	C1262.022095,1425.792847 1316.299194,1393.917725 1380.500854,1381.015625 
	C1501.048340,1356.790039 1625.639648,1406.297607 1688.763306,1511.324341 
	C1715.185181,1555.285767 1727.426392,1603.313477 1726.443970,1654.342773 
	C1723.854004,1788.870361 1646.451538,1917.258423 1526.420776,1977.056396 
	C1484.947266,1997.717896 1440.957520,2009.209106 1394.710205,2009.452515 
	C1321.669312,2009.836914 1257.766235,1984.376465 1203.337402,1936.106079 
	C1164.494385,1901.657593 1134.217529,1860.495239 1113.103271,1812.843018 
	C1112.317993,1811.070923 1111.306152,1809.399048 1109.859497,1806.655273 
	C1020.573547,1829.490601 931.432800,1852.288818 842.327026,1875.078003 
	C842.200195,1876.684448 841.805603,1877.751587 842.094788,1878.580200 
	C860.444946,1931.162231 881.025208,1982.786865 910.083923,2030.541504 
	C994.965210,2170.034668 1118.668945,2254.376953 1277.605957,2288.272705 
	C1330.063599,2299.460449 1383.264771,2302.698975 1436.664795,2299.466553 
	C1573.394775,2291.189941 1695.514893,2243.818359 1802.490967,2158.557373 
	C1917.211182,2067.124268 1993.018066,1949.800415 2030.629272,1808.031128 
	C2047.276978,1745.280518 2056.519531,1681.514160 2054.001465,1616.332031 
	C2046.206421,1414.562012 1932.135864,1248.220093 1766.147583,1167.376831 
	C1712.923096,1141.454468 1656.558838,1126.708618 1597.557617,1121.739380 
	C1490.293945,1112.705078 1391.549072,1138.995605 1299.835449,1193.756592 
	C1280.143433,1205.514404 1261.624634,1219.235718 1242.553711,1232.035278 
	C1238.443359,1234.793945 1234.282471,1237.477295 1229.206665,1239.734741 
	C1251.487915,1144.993774 1276.524048,1051.140259 1300.432739,955.939636 
	C1305.845825,955.609985 1311.394409,954.917725 1316.932617,954.991150 
	C1360.578979,955.569519 1404.221558,956.634644 1447.869019,956.869934 
	C1485.177490,957.071106 1522.497803,956.717773 1559.800903,955.993103 
	C1622.466919,954.775696 1684.956665,950.592224 1747.038574,941.801941 
	C1827.405151,930.422729 1905.761230,911.437866 1980.257935,878.317810 
	C2109.442383,820.884338 2204.210938,728.104065 2265.570068,600.929749 
	C2266.834473,598.309082 2268.267090,595.769592 2269.676758,593.086243 
	C2276.821533,594.429443 2281.237793,599.007935 2285.849854,603.223694 
	C2349.321777,661.242126 2405.682617,725.510803 2454.909424,796.010132 
	C2548.401123,929.902161 2612.245117,1076.694458 2645.467285,1236.605103 
	C2664.724854,1329.298706 2673.397949,1423.119995 2669.474121,1517.722290 
	C2657.481689,1806.845337 2556.195068,2060.420166 2362.911621,2276.090576 
	C2230.328369,2424.030518 2069.489746,2530.873291 1882.625122,2598.439941 
	C1881.362549,2598.896484 1880.118896,2599.405273 1878.105957,2600.086670 
z"/>
<path fill="#018F34" opacity="1.000000" stroke="none" 
	d="
M1394.142944,596.140442 
	C1443.691772,569.053955 1496.154907,552.253052 1550.303345,540.278503 
	C1603.053223,528.613281 1656.476074,521.684814 1710.333252,517.606567 
	C1768.505005,513.201599 1826.777710,512.210693 1885.062378,511.466064 
	C1949.681274,510.640564 2014.307739,510.354218 2078.923096,509.334656 
	C2103.887207,508.940735 2128.829102,507.161743 2153.783203,506.059143 
	C2157.068848,505.913971 2160.366699,506.039246 2164.149658,506.039246 
	C2163.721680,508.036316 2163.610840,509.694641 2163.017334,511.157013 
	C2134.267334,581.997681 2093.595703,644.518677 2034.551025,694.035583 
	C1989.055542,732.189697 1937.064087,758.648376 1881.166870,777.781372 
	C1831.881104,794.651306 1781.148315,805.215271 1729.590698,812.257690 
	C1654.190552,822.556702 1578.385864,826.078613 1502.385498,826.092834 
	C1448.084229,826.103027 1393.783569,825.292725 1339.481689,825.145203 
	C1293.522461,825.020386 1247.562256,825.324890 1201.602417,825.418579 
	C1200.002930,825.421814 1198.402954,825.200623 1195.505981,824.989502 
	C1213.959839,775.488586 1240.664795,731.885864 1274.095825,692.131531 
	C1307.581055,652.312683 1348.156128,621.450562 1394.142944,596.140442 
z"/>
</svg>